:version 1.10
:name ASF
:units
  mass 1
  length 1
  angle deg
:documentation
  ASF file generated by Kaydara
:root
  axis xyz
  order  tx ty tz rx ry rz
  position 0 0 0
  orientation 0 0 0
:bonedata
  begin
    id 1
    name lfemurDummy
    direction 0.61522 -0.761478 0.204097
    length 5.68318
    axis 0 -0 0 xyz
  end
  begin
    id 2
    name lfemur
    direction 0.34202 -0.939693 -5.84747e-008
    length 16.9147
    axis 0 -0 20 xyz
    dof rx ry rz
    limits( -inf , inf )
( -inf , inf )
( -inf , inf )

  end
  begin
    id 3
    name ltibia
    direction 0.34202 -0.939693 1.20839e-009
    length 18.0532
    axis 0 -0 20 xyz
    dof rz ry rx
    limits( -inf , inf )
( -inf , inf )
( -inf , inf )

  end
  begin
    id 4
    name lfoot
    direction 0.0841971 -0.23133 0.969225
    length 5.23822
    axis -90 7.62852e-016 20 xyz
    dof ry rx rz
    limits( -inf , inf )
( -inf , inf )
( -inf , inf )

  end
  begin
    id 5
    name ltoes
    direction 0 0 0
    length 0
    axis 0 0 0 xyz
    dof rz ry rx
    limits( -inf , inf )
( -inf , inf )
( -inf , inf )

  end
  begin
    id 6
    name rfemurDummy
    direction -0.625247 -0.75382 0.202044
    length 5.74091
    axis 0 -0 0 xyz
  end
  begin
    id 7
    name rfemur
    direction -0.34202 -0.939693 -1.47013e-008
    length 16.4922
    axis 0 -0 -20 xyz
    dof rx ry rz
    limits( -inf , inf )
( -inf , inf )
( -inf , inf )

  end
  begin
    id 8
    name rtibia
    direction -0.34202 -0.939693 -7.74345e-010
    length 18.2421
    axis 0 -0 -20 xyz
    dof rz ry rx
    limits( -inf , inf )
( -inf , inf )
( -inf , inf )

  end
  begin
    id 9
    name rfoot
    direction -0.124331 -0.341598 0.931586
    length 5.45787
    axis -90 -7.62852e-016 -20 xyz
    dof ry rx rz
    limits( -inf , inf )
( -inf , inf )
( -inf , inf )

  end
  begin
    id 10
    name rtoes
    direction 0 0 0
    length 0
    axis 0 0 0 xyz
    dof rz ry rx
    limits( -inf , inf )
( -inf , inf )
( -inf , inf )

  end
  begin
    id 11
    name lowerbackDummy
    direction 0 0 0
    length 0
    axis 0 -0 0 xyz
  end
  begin
    id 12
    name lowerback
    direction -0.0218484 0.994884 -0.0986304
    length 4.45607
    axis 0 -0 0 xyz
    dof rx ry rz
    limits( -inf , inf )
( -inf , inf )
( -inf , inf )

  end
  begin
    id 13
    name upperback
    direction -0.00973057 0.999717 -0.0217111
    length 4.47449
    axis 0 -0 0 xyz
    dof rx ry rz
    limits( -inf , inf )
( -inf , inf )
( -inf , inf )

  end
  begin
    id 14
    name thorax
    direction -0.000928171 0.999699 0.0245198
    length 4.50973
    axis 0 -0 0 xyz
    dof rx ry rz
    limits( -inf , inf )
( -inf , inf )
( -inf , inf )

  end
  begin
    id 15
    name rclavicle
    direction -0.9009 0.425937 -0.0834055
    length 7.28587
    axis 0 -0 0 xyz
    dof rx ry rz
    limits( -inf , inf )
( -inf , inf )
( -inf , inf )

  end
  begin
    id 16
    name rhumerus
    direction -1 -2.23604e-007 -1.42637e-007
    length 13.5704
    axis 180 30 90 xyz
    dof rx ry rz
    limits( -inf , inf )
( -inf , inf )
( -inf , inf )

  end
  begin
    id 17
    name rradius
    direction -1 5.68281e-008 -4.4952e-007
    length 8.06782
    axis 180 30 90 xyz
    dof rz ry rx
    limits( -inf , inf )
( -inf , inf )
( -inf , inf )

  end
  begin
    id 18
    name rwrist
    direction -1 1.51393e-007 1.38143e-007
    length 4.03391
    axis -90 -90 0 xyz
    dof rz rx ry
    limits( -inf , inf )
( -inf , inf )
( -inf , inf )

  end
  begin
    id 19
    name rthumb
    direction 0 0 0
    length 0
    axis 0 0 0 xyz
    dof ry rx rz
    limits( -inf , inf )
( -inf , inf )
( -inf , inf )

  end
  begin
    id 20
    name rhand
    direction -1 -3.34077e-007 -5.59631e-007
    length 1.29744
    axis -90 -90 0 xyz
    dof ry rx rz
    limits( -inf , inf )
( -inf , inf )
( -inf , inf )

  end
  begin
    id 21
    name rfingers
    direction 0 0 0
    length 0
    axis 0 0 0 xyz
    dof rz ry rx
    limits( -inf , inf )
( -inf , inf )
( -inf , inf )

  end
  begin
    id 22
    name lclavicle
    direction 0.940017 0.332249 -0.0773232
    length 8.29589
    axis 0 -0 0 xyz
    dof rx ry rz
    limits( -inf , inf )
( -inf , inf )
( -inf , inf )

  end
  begin
    id 23
    name lhumerus
    direction 1 7.41158e-008 -1.44768e-008
    length 12.0042
    axis 180 -30 -90 xyz
    dof rx ry rz
    limits( -inf , inf )
( -inf , inf )
( -inf , inf )

  end
  begin
    id 24
    name lradius
    direction 1 -1.32972e-007 3.10821e-007
    length 8.1902
    axis 180 -30 -90 xyz
    dof rz ry rx
    limits( -inf , inf )
( -inf , inf )
( -inf , inf )

  end
  begin
    id 25
    name lwrist
    direction 1 3.08957e-007 4.01394e-007
    length 4.09509
    axis -90 90 0 xyz
    dof rz rx ry
    limits( -inf , inf )
( -inf , inf )
( -inf , inf )

  end
  begin
    id 26
    name lthumb
    direction 0 0 0
    length 0
    axis 0 0 0 xyz
    dof ry rx rz
    limits( -inf , inf )
( -inf , inf )
( -inf , inf )

  end
  begin
    id 27
    name lhand
    direction 1 -1.64125e-007 -6.99514e-007
    length 1.37229
    axis -90 90 0 xyz
    dof ry rx rz
    limits( -inf , inf )
( -inf , inf )
( -inf , inf )

  end
  begin
    id 28
    name lfingers
    direction 0 0 0
    length 0
    axis 0 0 0 xyz
    dof rz ry rx
    limits( -inf , inf )
( -inf , inf )
( -inf , inf )

  end
  begin
    id 29
    name lowerneck
    direction -0.030798 0.998024 0.0547665
    length 3.93918
    axis 0 -0 0 xyz
    dof rx ry rz
    limits( -inf , inf )
( -inf , inf )
( -inf , inf )

  end
  begin
    id 30
    name upperneck
    direction 0.0531588 0.996611 -0.0627736
    length 3.95491
    axis 0 -0 0 xyz
    dof rx ry rz
    limits( -inf , inf )
( -inf , inf )
( -inf , inf )

  end
  begin
    id 31
    name head
    direction 0 0 0
    length 0
    axis 0 0 0 xyz
    dof rx ry rz
    limits( -inf , inf )
( -inf , inf )
( -inf , inf )

  end
:hierarchy
  begin
    root lfemurDummy rfemurDummy lowerbackDummy
    lfemurDummy lfemur
    lfemur ltibia
    ltibia lfoot
    lfoot ltoes
    rfemurDummy rfemur
    rfemur rtibia
    rtibia rfoot
    rfoot rtoes
    lowerbackDummy lowerback
    lowerback upperback
    upperback thorax
    thorax rclavicle lclavicle lowerneck
    rclavicle rhumerus
    rhumerus rradius
    rradius rwrist
    rwrist rthumb rhand
    rhand rfingers
    lclavicle lhumerus
    lhumerus lradius
    lradius lwrist
    lwrist lthumb lhand
    lhand lfingers
    lowerneck upperneck
    upperneck head
  end

:SAMPLES-PER-SECOND 30
:FULLY-SPECIFIED
:DEGREES
1
root  7.933889224 37.74222126 -2.23044448 -1.513000488 -67.60399628 -4.123001099
lowerback  12.21749973 1.583909988 -3.898829937
upperback  4.149539948 1.502820015 -0.2702040076
thorax  -2.591820002 0.6838260293 1.70302999
lowerneck  -4.806220055 4.602560043 -4.543570042
upperneck  12.17210007 6.056779861 4.127989769
head  4.152460098 2.971169949 2.289459944
lclavicle  0 -9.442270133e-015 7.951389973e-016
lhumerus  -0.8725450039 -8.467960358 68.76260376
lradius  2.526812865e-031 -2.466588896e-031 135.6909943
lwrist  -1.412450015e-030 -0 11.53789997
lhand  -1.496451383e-031 -27.76390076 20.11240005
lfingers  90 7.125020027 -90
lthumb  89.89689403 5.08795885 91.16245106
rclavicle  0 -9.442270133e-015 7.951389973e-016
rhumerus  -9.219630241 20.88660049 -83.10179901
rradius  -2.03374199e-031 2.886648153e-031 125.1660004
rwrist  3.531125038e-031 -3.531125038e-031 -0.09662239999
rhand  -7.920061211e-032 -33.2840004 9.303460121
rfingers  -90 -7.125020027 -90
rthumb  -92.93752616 -24.25625642 -97.11982154
rfemur  -7.717450142 19.96509933 1.073150039
rtibia  -0 0 55.93920135
rfoot  -0 19.20219994 25.08989906
rtoes  5.373923086 19.29304026 -105.8922705
lfemur  -32.87770081 8.776040077 4.396709919
ltibia  -0 0 72.78690338
lfoot  -0 1.891939998 -9.909070015
ltoes  -4.250644065 -19.5611806 -102.515957
2
root  7.873333158 37.68888759 -2.289111032 -2.175994873 -67.33699799 -3.535003662
lowerback  13.02200031 1.757240057 -4.258419991
upperback  3.742010117 1.648489952 -0.1842930019
thorax  -3.475960016 0.7800409794 1.950909972
lowerneck  -4.951280117 4.393420219 -5.071269989
upperneck  12.36569977 5.831980228 4.105860233
head  4.231019974 2.834690094 2.366679907
lclavicle  0 -9.442270133e-015 7.951389973e-016
lhumerus  -0.08731570095 -8.488499641 68.44460297
lradius  2.513950298e-031 -2.479697146e-031 135.3930054
lwrist  -7.062250077e-031 -1.765562519e-031 13.31949997
lhand  -1.496451383e-031 -27.76390076 20.11240005
lfingers  90 7.125020027 -90
lthumb  89.89689403 5.08795885 91.16245106
rclavicle  0 -9.442270133e-015 7.951389973e-016
rhumerus  -10.20930004 21.2609005 -83.22489929
rradius  -2.034044102e-031 2.886435281e-031 125.1719971
rwrist  7.062250077e-031 -7.062250077e-031 0.3355039954
rhand  -7.920061211e-032 -33.2840004 9.303460121
rfingers  -90 -7.125020027 -90
rthumb  -92.93752616 -24.25625642 -97.11982154
rfemur  -8.444890022 18.62899971 1.216510057
rtibia  -0 0 58.75329971
rfoot  -0 11.0692997 21.79739952
rtoes  5.373923086 19.29304026 -105.8922705
lfemur  -33.56520081 8.401140213 4.156620026
ltibia  -0 0 72.56759644
lfoot  -0 0.874867022 -8.564129829
ltoes  -4.250644065 -19.5611806 -102.515957
3
root  7.800377823 37.65488872 -2.334911054 -2.942993164 -66.97000122 -2.936004639
lowerback  13.32820034 1.762429953 -4.202469826
upperback  3.757090092 1.634279966 -0.393938005
thorax  -3.61841011 0.7735180259 1.696020007
lowerneck  -5.283400059 4.257900238 -5.471889973
upperneck  12.17689991 5.703040123 4.203649998
head  4.220590115 2.766309977 2.460599899
lclavicle  0 -9.442270133e-015 7.951389973e-016
lhumerus  0.9109259844 -8.639570236 67.85590363
lradius  2.498929697e-031 -2.494833543e-031 135.0469971
lwrist  -1.412450015e-030 1.765562519e-031 13.39299965
lhand  -1.496451383e-031 -27.76390076 20.11240005
lfingers  90 7.125020027 -90
lthumb  89.89689403 5.08795885 91.16245106
rclavicle  0 -9.442270133e-015 7.951389973e-016
rhumerus  -10.46360016 21.64599991 -83.65119934
rradius  -2.026632104e-031 2.89164423e-031 125.0250015
rwrist  3.531125038e-031 -3.531125038e-031 0.7514089942
rhand  -7.920061211e-032 -33.2840004 9.303460121
rfingers  -90 -7.125020027 -90
rthumb  -92.93752616 -24.25625642 -97.11982154
rfemur  -8.813690186 17.07369995 1.365980029
rtibia  -0 0 60.99840164
rfoot  -0 4.840680122 17.32250023
rtoes  5.373923086 19.29304026 -105.8922705
lfemur  -34.00400162 7.738589764 3.887919903
ltibia  -0 0 72.01709747
lfoot  8.828532156e-032 -0.7315260172 -6.986810207
ltoes  -4.250644065 -19.5611806 -102.515957
4
root  7.716466498 37.59244483 -2.370577722 -3.733001709 -66.66600037 -2.382003784
lowerback  13.69649982 1.828150034 -4.209839821
upperback  3.765360117 1.690629959 -0.5333499908
thorax  -3.809400082 0.8027330041 1.536579967
lowerneck  -5.741889954 4.109099865 -5.8447299
upperneck  12.15100002 5.570819855 4.214980125
head  4.285560131 2.691159964 2.530440092
lclavicle  0 -9.442270133e-015 7.951389973e-016
lhumerus  1.426319957 -9.32324028 67.8207016
lradius  2.484475602e-031 -2.509227973e-031 134.7160034
lwrist  -7.062250077e-031 -0 12.0060997
lhand  -1.496451383e-031 -27.76390076 20.11240005
lfingers  90 7.125020027 -90
lthumb  89.89689403 5.08795885 91.16245106
rclavicle  0 -9.442270133e-015 7.951389973e-016
rhumerus  -10.75199986 22.03809929 -83.99459839
rradius  -2.019004249e-031 2.896975298e-031 124.8740005
rwrist  1.059337512e-030 -0 0.9923359752
rhand  -7.920061211e-032 -33.2840004 9.303460121
rfingers  -90 -7.125020027 -90
rthumb  -92.93752616 -24.25625642 -97.11982154
rfemur  -8.934690475 15.53590012 1.525550008
rtibia  -0 0 62.60559845
rfoot  -0 0.9641739726 13.50360012
rtoes  5.373923086 19.29304026 -105.8922705
lfemur  -34.16749954 6.858129978 3.714669943
ltibia  -0 0 71.14600372
lfoot  8.835254872e-032 -2.351860046 -6.121339798
ltoes  -4.250644065 -19.5611806 -102.515957
